<svg width="389" height="163" viewBox="0 0 389 163" fill="none" xmlns="http://www.w3.org/2000/svg">
<g opacity="0.24" clip-path="url(#clip0_34_64)">
<path d="M18.0358 23.0943C9.01791 23.0943 9.01791 0 0 0V163H631.254V147.638C621.484 147.638 622.236 156.134 613.218 156.134C604.2 156.134 604.2 132.008 595.182 132.008C586.164 132.008 587.667 139.432 577.146 139.432C566.625 139.432 569.631 153.329 559.11 153.329C548.589 153.329 550.844 148.051 541.075 148.051C531.305 148.051 533.184 122.894 523.039 122.894C512.894 122.894 515.524 131.101 505.003 131.101C494.482 131.101 496.361 142.401 486.967 142.401C477.573 142.401 479.076 104.873 468.931 104.873C458.786 104.873 459.913 117.863 450.895 117.863C441.878 117.863 443.38 99.6765 432.86 99.6765C422.339 99.6765 424.593 111.306 414.824 111.306C405.054 111.306 406.557 63.7566 396.788 63.7566C387.019 63.7566 388.897 76.9946 378.752 76.9946C368.607 76.9946 371.237 85.7374 360.716 85.7374C350.195 85.7374 352.826 63.0556 342.681 63.0556C332.535 63.0556 335.166 74.1903 324.645 74.1903C314.124 74.1903 316.003 55.8386 306.609 55.8386C297.215 55.8386 298.342 25.1562 288.573 25.1562C278.804 25.1562 280.307 76.4997 270.537 76.4997C260.768 76.4997 261.895 40.5387 252.501 40.5387C243.108 40.5387 244.987 56.2922 234.466 56.2922C223.945 56.2922 226.199 70.4375 216.43 70.4375C206.66 70.4375 207.788 47.0133 198.394 47.0133C189 47.0133 189.752 69.2828 180.358 69.2828C170.965 69.2828 172.092 59.3852 162.322 59.3852C152.553 59.3852 154.056 38.9716 144.287 38.9716C134.517 38.9716 136.02 47.137 126.251 47.137C116.481 47.137 117.233 17.3207 108.215 17.3207C99.197 17.3207 100.7 58.1893 90.1791 58.1893C79.6582 58.1893 82.2884 30.4349 72.1433 30.4349C61.9981 30.4349 63.5011 41.8583 54.1075 41.8583C44.7138 41.8583 45.4653 13.4029 36.0716 13.4029C26.678 13.4029 27.0537 23.0943 18.0358 23.0943Z" fill="#EB5757"/>
</g>
<g clip-path="url(#clip1_34_64)">
<path d="M0 0.0776367C9.01791 0.0776367 9.01791 23.1609 18.0358 23.1609C27.0537 23.1609 26.678 13.4742 36.0716 13.4742C45.4653 13.4742 44.7138 41.9161 54.1075 41.9161C63.5011 41.9161 61.9981 30.4981 72.1433 30.4981C82.2884 30.4981 79.6582 58.2393 90.1791 58.2393C100.7 58.2393 99.197 17.3901 108.215 17.3901C117.233 17.3901 116.481 47.1923 126.251 47.1923C136.02 47.1923 134.517 39.0307 144.287 39.0307C154.056 39.0307 152.553 59.4347 162.322 59.4347C172.092 59.4347 170.965 69.3275 180.358 69.3275C189.752 69.3275 189 47.0686 198.394 47.0686C207.788 47.0686 206.66 70.4817 216.43 70.4817C226.199 70.4817 223.945 56.3432 234.466 56.3432C244.987 56.3432 243.108 40.5971 252.501 40.5971C261.895 40.5971 260.768 76.5411 270.537 76.5411C280.307 76.5411 278.804 25.2219 288.573 25.2219C298.342 25.2219 297.215 55.8897 306.609 55.8897C316.003 55.8897 314.124 74.2327 324.645 74.2327C335.166 74.2327 332.535 63.1033 342.681 63.1033C352.826 63.1033 350.195 85.7744 360.716 85.7744C371.237 85.7744 368.607 77.0357 378.752 77.0357C388.897 77.0357 387.019 63.804 396.788 63.804C406.557 63.804 405.054 111.331 414.824 111.331C424.593 111.331 422.339 99.7068 432.86 99.7068C443.381 99.7068 441.878 117.885 450.895 117.885C459.913 117.885 458.786 104.901 468.931 104.901C479.076 104.901 477.573 142.411 486.967 142.411C496.361 142.411 494.482 131.117 505.003 131.117C515.524 131.117 512.894 122.914 523.039 122.914C533.184 122.914 531.305 148.058 541.075 148.058C550.844 148.058 548.589 153.334 559.11 153.334C569.631 153.334 566.625 139.443 577.146 139.443C587.667 139.443 586.164 132.023 595.182 132.023C604.2 132.023 604.2 156.137 613.218 156.137C622.236 156.137 621.484 147.646 631.254 147.646" stroke="#EB5757" stroke-width="0.751492"/>
</g>
<defs>
<clipPath id="clip0_34_64">
<rect width="389" height="163" fill="white"/>
</clipPath>
<clipPath id="clip1_34_64">
<rect width="389" height="163" fill="white"/>
</clipPath>
</defs>
</svg>
