<svg width="389" height="163" viewBox="0 0 389 163" fill="none" xmlns="http://www.w3.org/2000/svg">
<g opacity="0.24" clip-path="url(#clip0_34_64)">
<path d="M370.964 23.0943C379.982 23.0943 379.982 0 389 0V163H-242.254V147.638C-232.484 147.638 -233.236 156.134 -224.218 156.134C-215.2 156.134 -215.2 132.008 -206.182 132.008C-197.164 132.008 -198.667 139.432 -188.146 139.432C-177.625 139.432 -180.631 153.329 -170.11 153.329C-159.589 153.329 -161.844 148.051 -152.075 148.051C-142.305 148.051 -144.184 122.894 -134.039 122.894C-123.894 122.894 -126.524 131.101 -116.003 131.101C-105.482 131.101 -107.361 142.401 -97.9671 142.401C-88.5734 142.401 -90.0764 104.873 -79.9312 104.873C-69.7861 104.873 -70.9133 117.863 -61.8954 117.863C-52.8775 117.863 -54.3805 99.6765 -43.8596 99.6765C-33.3387 99.6765 -35.5932 111.306 -25.8238 111.306C-16.0544 111.306 -17.5574 63.7566 -7.78796 63.7566C1.98141 63.7566 0.102692 76.9946 10.2478 76.9946C20.393 76.9946 17.7628 85.7374 28.2837 85.7374C38.8046 85.7374 36.1743 63.0556 46.3195 63.0556C56.4646 63.0556 53.8344 74.1903 64.3553 74.1903C74.8762 74.1903 72.9975 55.8386 82.3911 55.8386C91.7848 55.8386 90.6575 25.1562 100.427 25.1562C110.196 25.1562 108.693 76.4997 118.463 76.4997C128.232 76.4997 127.105 40.5387 136.499 40.5387C145.892 40.5387 144.013 56.2922 154.534 56.2922C165.055 56.2922 162.801 70.4375 172.57 70.4375C182.34 70.4375 181.212 47.0133 190.606 47.0133C200 47.0133 199.248 69.2828 208.642 69.2828C218.035 69.2828 216.908 59.3852 226.678 59.3852C236.447 59.3852 234.944 38.9716 244.713 38.9716C254.483 38.9716 252.98 47.137 262.749 47.137C272.519 47.137 271.767 17.3207 280.785 17.3207C289.803 17.3207 288.3 58.1893 298.821 58.1893C309.342 58.1893 306.712 30.4349 316.857 30.4349C327.002 30.4349 325.499 41.8583 334.893 41.8583C344.286 41.8583 343.535 13.4029 352.928 13.4029C362.322 13.4029 361.946 23.0943 370.964 23.0943Z" fill="#6FCF97"/>
</g>
<g clip-path="url(#clip1_34_64)">
<path d="M389 0.0776367C379.982 0.0776367 379.982 23.1609 370.964 23.1609C361.946 23.1609 362.322 13.4742 352.928 13.4742C343.535 13.4742 344.286 41.9161 334.893 41.9161C325.499 41.9161 327.002 30.4981 316.857 30.4981C306.712 30.4981 309.342 58.2393 298.821 58.2393C288.3 58.2393 289.803 17.3901 280.785 17.3901C271.767 17.3901 272.519 47.1923 262.749 47.1923C252.98 47.1923 254.483 39.0307 244.713 39.0307C234.944 39.0307 236.447 59.4347 226.678 59.4347C216.908 59.4347 218.035 69.3275 208.642 69.3275C199.248 69.3275 200 47.0686 190.606 47.0686C181.212 47.0686 182.34 70.4817 172.57 70.4817C162.801 70.4817 165.055 56.3432 154.534 56.3432C144.013 56.3432 145.892 40.5971 136.499 40.5971C127.105 40.5971 128.232 76.5411 118.463 76.5411C108.693 76.5411 110.196 25.2219 100.427 25.2219C90.6575 25.2219 91.7848 55.8897 82.3911 55.8897C72.9975 55.8897 74.8762 74.2327 64.3553 74.2327C53.8344 74.2327 56.4646 63.1033 46.3195 63.1033C36.1743 63.1033 38.8046 85.7744 28.2837 85.7744C17.7628 85.7744 20.393 77.0357 10.2478 77.0357C0.102693 77.0357 1.98142 63.804 -7.78798 63.804C-17.5574 63.804 -16.0544 111.331 -25.8238 111.331C-35.5932 111.331 -33.3387 99.7068 -43.8596 99.7068C-54.3805 99.7068 -52.8775 117.885 -61.8954 117.885C-70.9133 117.885 -69.7861 104.901 -79.9312 104.901C-90.0764 104.901 -88.5734 142.411 -97.9671 142.411C-107.361 142.411 -105.482 131.117 -116.003 131.117C-126.524 131.117 -123.894 122.914 -134.039 122.914C-144.184 122.914 -142.305 148.058 -152.075 148.058C-161.844 148.058 -159.589 153.334 -170.11 153.334C-180.631 153.334 -177.625 139.443 -188.146 139.443C-198.667 139.443 -197.164 132.023 -206.182 132.023C-215.2 132.023 -215.2 156.137 -224.218 156.137C-233.236 156.137 -232.484 147.646 -242.254 147.646" stroke="#219653" stroke-width="0.751492"/>
</g>
<defs>
<clipPath id="clip0_34_64">
<rect width="389" height="163" fill="white" transform="matrix(-1 0 0 1 389 0)"/>
</clipPath>
<clipPath id="clip1_34_64">
<rect width="389" height="163" fill="white" transform="matrix(-1 0 0 1 389 0)"/>
</clipPath>
</defs>
</svg>
