<?xml version="1.0" encoding="iso-8859-1"?>
<!-- Generator: Adobe Illustrator 19.0.0, SVG Export Plug-In . SVG Version: 6.00 Build 0)  -->
<svg version="1.1" id="Layer_1" xmlns="http://www.w3.org/2000/svg" xmlns:xlink="http://www.w3.org/1999/xlink" x="0px" y="0px"
	 viewBox="0 0 512 512" style="enable-background:new 0 0 512 512;" xml:space="preserve">
<g>
	<g>
		<path d="M511.755,391.412L478.2,253.962c-0.939-3.846-4.386-6.553-8.345-6.553h-83.403l-31.956-130.897
			c-0.939-3.846-4.386-6.553-8.345-6.553H165.852c-3.96,0-7.406,2.707-8.346,6.553l-9.168,37.556
			c-1.125,4.609,1.699,9.258,6.308,10.383c4.613,1.128,9.258-1.7,10.383-6.308l7.568-31.003h166.807l29.36,120.269H143.235
			l14.48-59.313c1.125-4.609-1.699-9.258-6.308-10.383c-4.609-1.124-9.258,1.7-10.383,6.308L125.55,247.41H42.147
			c-3.96,0-7.406,2.707-8.346,6.553L0.245,391.412c-0.625,2.562-0.04,5.269,1.589,7.343s4.12,3.285,6.757,3.285h392.88
			c4.744,0,8.591-3.846,8.591-8.591c0-4.744-3.846-8.591-8.591-8.591H266.94l29.362-120.268h166.807l29.36,120.268h-60.071
			c-4.744,0-8.591,3.846-8.591,8.591c0,4.744,3.846,8.591,8.591,8.591h71.012c2.637,0,5.128-1.211,6.757-3.285
			C511.795,396.681,512.38,393.974,511.755,391.412z M19.531,384.859l29.362-120.268h166.807l29.36,120.268H19.531z M256,357.227
			l-22.615-92.637h45.231L256,357.227z"/>
	</g>
</g>
<g>
</g>
<g>
</g>
<g>
</g>
<g>
</g>
<g>
</g>
<g>
</g>
<g>
</g>
<g>
</g>
<g>
</g>
<g>
</g>
<g>
</g>
<g>
</g>
<g>
</g>
<g>
</g>
<g>
</g>
</svg>
